<?xml version="1.0" encoding="UTF-8"?>
<svg xmlns="http://www.w3.org/2000/svg" version="1.1" viewBox="0 0 800 500">
  <!-- Generator: Adobe Illustrator 29.1.0, SVG Export Plug-In . SVG Version: 2.1.0 Build 142)  -->
  <defs>
    <style>
      .st0 {
        fill: #415a91;
        mix-blend-mode: screen;
        opacity: .25;
      }

      .st1 {
        isolation: isolate;
      }

      .st2 {
        opacity: .35;
      }

      .st2, .st3 {
        fill: #2fb76b;
      }
    </style>
  </defs>
  <g class="st1">
    <g id="Layer_1">
      <g>
        <ellipse class="st2" cx="313.85" cy="225.73" rx="85.54" ry="68.94" transform="translate(13.29 468.89) rotate(-74.7)"/>
        <ellipse class="st0" cx="300.38" cy="274" rx="68.94" ry="85.54" transform="translate(-54.61 75.8) rotate(-13.19)"/>
        <g>
          <g>
            <path class="st3" d="M322.62,249.17l-6.71-16.7h-2.05v16.7h-14.24v-46.14h19.58c10.34,0,16.98,5,16.98,14.03,0,5.89-3.35,10.54-8.01,12.32l10.13,19.78h-15.68ZM316.66,213.3h-2.81v9.24h2.05c3.9,0,5.89-1.51,5.89-4.93,0-2.81-1.85-4.31-5.13-4.31Z"/>
            <path class="st3" d="M375.26,250.41c-16.84,0-34.91-6.57-34.91-24.3s17.94-24.3,34.91-24.3,34.98,6.64,34.98,24.3-17.73,24.3-34.98,24.3ZM375.26,212.82c-11.5,0-18.14,5.07-18.14,13.28s6.64,13.28,18.14,13.28,18.21-5,18.21-13.28-6.64-13.28-18.21-13.28Z"/>
            <path class="st3" d="M439,249.17v-19.1h-8.63v19.1h-14.24v-46.14h14.24v15.81h8.63v-15.81h14.31v46.14h-14.31Z"/>
            <path class="st3" d="M484.32,249.17l-1.44-7.19h-8.97l-1.44,7.19h-14.38l12.6-46.48h15.81l12.6,46.48h-14.79ZM478.36,215.22l-2.87,16.29h5.82l-2.94-16.29Z"/>
            <path class="st3" d="M569.55,250.13h-1.99l-47.78-24.78v23.82h-15.81v-47.1h1.98l47.78,24.58v-23.62h15.81v47.1Z"/>
          </g>
          <g>
            <path class="st3" d="M343.08,289.13h-27.66v12.53h-15.81v-46.14h43.4c10.82,0,18.96,5.34,18.96,16.57s-8.15,17.05-18.89,17.05ZM338.77,266.4h-23.34v11.84h23.75c3.76,0,6.57-2.33,6.57-6.16s-2.94-5.68-6.98-5.68Z"/>
            <path class="st3" d="M404.9,301.66l-1.44-7.19h-8.97l-1.44,7.19h-14.38l12.6-46.48h15.81l12.6,46.48h-14.79ZM398.95,267.7l-2.87,16.29h5.82l-2.94-16.29Z"/>
            <path class="st3" d="M478.98,288.79c0,7.74-4.93,14.1-18.62,14.1s-18.55-6.37-18.55-14.1v-33.27h14.24v31.9c0,2.6,1.37,4.72,4.31,4.72,3.22,0,4.38-1.99,4.38-4.72v-31.9h14.24v33.27Z"/>
            <path class="st3" d="M504.85,301.66v-46.14h15.81v34.16h48.88v11.98h-64.69Z"/>
          </g>
        </g>
      </g>
    </g>
  </g>
</svg>